name C:\Users\u0101727\Documents\MyRepositories\paper-ad\predictivesimulations_2d/Results/PredSim_2D/IK_c15.mot
datacolumns 11
datarows 25
range 0.63317956 0.86342668
endheader
time	pelvis_tilt	pelvis_tx	pelvis_ty	hip_flexion_l	hip_flexion_r	knee_angle_l	knee_angle_r	ankle_angle_l	ankle_angle_r	lumbar_extension	
          0.63317956	        -15.05661264	          0.85495576	          0.89989315	         25.69672713	         11.37614706	        -10.65088846	        -40.88797147	          8.49601108	         -0.30678243	         10.30939998	
          0.64277319	        -15.07370300	          0.86692809	          0.90133069	         24.77786825	         12.64911116	        -10.40373242	        -41.78446143	          8.59883550	          0.66939162	         10.27103623	
          0.65236682	        -15.08831466	          0.87884458	          0.90252455	         23.84373273	         13.95450717	        -10.13174020	        -42.57306091	          8.74249055	          1.72552029	         10.22868775	
          0.66196045	        -15.10043153	          0.89071284	          0.90347803	         22.89876023	         15.28734753	         -9.84271635	        -43.24555846	          8.92111447	          2.84393653	         10.18267011	
          0.67155408	        -15.11017721	          0.90254019	          0.90420171	         21.94684271	         16.64164751	         -9.54370617	        -43.79445021	          9.12820708	          4.00682909	         10.13346042	
          0.68114771	        -15.11771535	          0.91433289	          0.90471254	         20.99214875	         18.01156705	         -9.24227767	        -44.21208221	          9.35608515	          5.19635343	         10.08149053	
          0.69074134	        -15.12318739	          0.92609645	          0.90503127	         20.03925868	         19.39162934	         -8.94629325	        -44.49062016	          9.59671043	          6.39469018	         10.02710084	
          0.70033497	        -15.12673836	          0.93783687	          0.90517932	         19.09297368	         20.77534621	         -8.66412219	        -44.62312142	          9.84213158	          7.58403777	          9.97066935	
          0.70992860	        -15.12858766	          0.94956122	          0.90517693	         18.15654157	         22.15578633	         -8.40141168	        -44.60397527	         10.08499218	          8.74671790	          9.91272933	
          0.71952223	        -15.12905154	          0.96127782	          0.90504223	         17.23077359	         23.52606752	         -8.15945894	        -44.42911819	         10.31865820	          9.86536193	          9.85402175	
          0.72911586	        -15.12841281	          0.97299545	          0.90479074	         16.31708205	         24.87831636	         -7.94104666	        -44.09654118	         10.53634772	         10.92323520	          9.79528049	
          0.73870949	        -15.12691534	          0.98472234	          0.90443557	         15.41761473	         26.20453404	         -7.74980916	        -43.60534168	         10.73195337	         11.90489574	          9.73712960	
          0.74830312	        -15.12479992	          0.99646751	          0.90398743	         14.53394946	         27.49595883	         -7.58876546	        -42.95849877	         10.90082285	         12.79695031	          9.68029894	
          0.75789675	        -15.12232465	          1.00823945	          0.90345545	         13.66701572	         28.74456649	         -7.45994066	        -42.16055245	         11.04000600	         13.58916603	          9.62548173	
          0.76749038	        -15.11975319	          1.02004478	          0.90284773	         12.81766947	         29.94413236	         -7.36441720	        -41.21589531	         11.14835712	         14.27545774	          9.57316808	
          0.77708401	        -15.11732410	          1.03188982	          0.90217080	         11.98662204	         31.08896037	         -7.30386531	        -40.13122990	         11.22658858	         14.85423032	          9.52379837	
          0.78667764	        -15.11525900	          1.04377891	          0.90143003	         11.17419383	         32.17610509	         -7.27919451	        -38.91204879	         11.27752287	         15.32831143	          9.47756238	
          0.79627127	        -15.11377008	          1.05571566	          0.90062922	         10.38027495	         33.20421030	         -7.29080270	        -37.56334128	         11.30561493	         15.70397925	          9.43452589	
          0.80586490	        -15.11307548	          1.06770343	          0.89977033	          9.60461247	         34.17267601	         -7.33869893	        -36.09050773	         11.31617936	         15.98959988	          9.39466791	
          0.81545853	        -15.11345707	          1.07974674	          0.89885350	          8.84659305	         35.08000635	         -7.42231579	        -34.50105288	         11.31447918	         16.19431787	          9.35806235	
          0.82505216	        -15.11530677	          1.09185206	          0.89787760	          8.10517047	         35.92273235	         -7.54059656	        -32.80269829	         11.30412318	         16.32725423	          9.32501781	
          0.83464579	        -15.11894680	          1.10402751	          0.89684147	          7.37999571	         36.69627691	         -7.69382599	        -31.00690361	         11.28593609	         16.39719240	          9.29591978	
          0.84423942	        -15.12444638	          1.11628509	          0.89574776	          6.67196890	         37.39392372	         -7.88567686	        -29.13988096	         11.25830241	         16.41227543	          9.27135934	
          0.85383305	        -15.13183436	          1.12864305	          0.89460888	          5.98311821	         38.00271190	         -8.12238918	        -27.23586053	         11.21518108	         16.37978746	          9.25264216	
          0.86342668	        -15.14113276	          1.14112287	          0.89344654	          5.31659628	         38.50687260	         -8.41107277	        -25.32702055	         11.14416000	         16.30611967	          9.24148774	
